PathFileType	4	(X/Y/Z)	../Python\running\Running06\task.trc
DataRate	CameraRate	NumFrames	NumMarkers	Units	OrigDataRate	OrigDataStartFrame	OrigNumFrames
200.000000	200.000000	4	30	mm	200.000000	78	208
Frame#	Time	C7			RBAK			CLAV			STRN			RASI			LASI			PE01			RTH1			RTH2			RTH3			RD5M			RTOE			LTH2			LTH3			LTB2			LTB3			LHEE			LTOE			LD5M			RHEE			RTB2			LPSI			RPSI			T10			RTB3			RTB1			PE03			PE02			LTH1			LTB1			
		X1	Y1	Z1	X2	Y2	Z2	X3	Y3	Z3	X4	Y4	Z4	X5	Y5	Z5	X6	Y6	Z6	X7	Y7	Z7	X8	Y8	Z8	X9	Y9	Z9	X10	Y10	Z10	X11	Y11	Z11	X12	Y12	Z12	X13	Y13	Z13	X14	Y14	Z14	X15	Y15	Z15	X16	Y16	Z16	X17	Y17	Z17	X18	Y18	Z18	X19	Y19	Z19	X20	Y20	Z20	X21	Y21	Z21	X22	Y22	Z22	X23	Y23	Z23	X24	Y24	Z24	X25	Y25	Z25	X26	Y26	Z26	X27	Y27	Z27	X28	Y28	Z28	X29	Y29	Z29	X30	Y30	Z30	

79	0.39	-499.3560791015627	1332.216552734375	110.8978271484376	-566.415710449219	1257.738403320313	208.3625488281251	-385.201354980469	1227.972534179688	142.1843414306641	-353.7227783203126	1034.262451171875	156.489486694336	-417.0926818847659	843.4160156250005	260.0661010742189	-425.7076110839846	836.3804321289067	32.52526473999025	-595.0679931640627	945.951293945313	163.1713256835938	-372.5931701660157	588.1326904296877	306.7575988769532	-316.1590881347657	535.2165527343752	287.3533020019532	-322.8459472656251	595.0758056640627	302.2203979492189	-448.431091308594	70.74777984619143	295.7536621093751	-408.814880371094	60.22442626953128	252.3847503662111	-576.8112792968752	532.8144531250002	23.7066993713379	-499.8500061035159	552.398620605469	18.36367225646973	-730.9736938476565	229.8169097900392	69.1850280761719	-682.4117431640627	233.8627319335939	73.71594238281253	-856.2549438476567	104.407081604004	131.2716217041016	-693.4692382812502	28.91152572631837	156.5634460449219	-728.5171508789065	16.04226303100587	99.98014831542974	-562.9165039062502	137.0007629394532	200.8568725585939	-408.4686584472659	316.8961791992189	285.2322387695314	-611.0486450195315	912.7682495117192	121.7656402587891	-607.8401489257815	912.8892211914067	207.0019989013673	-567.1609497070315	1046.240600585938	143.4239196777344	-398.559997558594	268.4785461425782	272.4202575683595	-349.684295654297	331.3425903320314	278.0285034179689	-626.2412719726565	892.118041992188	137.3335876464844	-626.1278076171877	892.4474487304692	188.1244659423829	-539.340026855469	581.0484008789065	8.880605697631839	-684.6580810546877	291.2092895507814	50.75107574462893	
80	0.395	-483.5466918945315	1335.539184570313	111.2155761718751	-551.6851196289065	1260.552978515625	206.315887451172	-369.353485107422	1232.322998046875	144.1393585205079	-337.0093688964845	1038.516967773438	157.5109558105469	-399.9791259765627	847.6939086914067	259.3737792968751	-408.1920166015627	839.271606445313	32.01252365112306	-577.6793212890627	949.0876464843755	160.9628906250001	-354.3929138183595	592.8221435546877	304.5117187500001	-297.5552978515626	540.4342041015627	284.596160888672	-304.6900939941407	600.168640136719	299.7976684570314	-409.0154724121096	66.33348083496097	296.3526611328126	-369.4312133789064	57.64989852905276	252.5023193359376	-567.193542480469	537.5346679687502	24.10141563415529	-489.3704833984377	555.3718872070315	18.99810218811036	-726.9949951171877	236.0439605712892	69.35115051269534	-678.2219238281252	239.8445281982423	73.01698303222659	-850.5712280273442	111.7567749023438	131.0063018798829	-693.135192871094	28.52472496032716	156.4085845947266	-728.2856445312502	16.41244125366212	100.1790466308594	-527.1608886718752	127.9424591064454	202.6291503906251	-381.839080810547	315.8204956054689	285.0474853515626	-593.685241699219	915.6161499023442	120.0343093872071	-590.769714355469	916.4313354492192	205.2982025146486	-550.1469726562502	1049.172119140625	140.8129119873047	-369.5335388183595	267.932586669922	272.5379028320314	-324.0359497070314	333.2734985351564	277.5037841796876	-609.0882568359377	894.8472290039067	136.1233520507813	-608.9158325195315	896.1452636718755	186.9470520019532	-528.4556884765627	584.853210449219	9.248324394226078	-680.7998046875002	297.4392089843751	50.98091506958011	
81	0.4	-467.6904602050784	1338.866455078125	111.5390930175782	-536.8463134765627	1263.3603515625	204.2762756347657	-353.5086669921876	1236.694091796875	146.0592651367188	-320.2595825195314	1042.786010742188	158.5237579345704	-382.7794494628907	851.9649047851567	258.5991821289064	-390.5981140136721	842.1965942382817	31.44619941711427	-560.1099853515627	952.2442016601567	158.8309020996094	-336.569549560547	597.2756958007815	302.0813903808595	-279.5443725585939	545.1714477539065	281.7710571289064	-286.8730773925782	604.8177490234377	297.1860351562501	-369.5396423339845	62.32244491577151	296.6140747070314	-330.068328857422	55.46553039550784	252.2952270507814	-557.151550292969	542.5122680664065	24.61742591857912	-478.4935302734377	558.4864501953127	19.76703071594239	-722.413024902344	242.5037078857423	69.52948760986331	-673.459899902344	246.1339569091798	72.27924346923831	-843.9633178710942	119.3171539306641	130.7831420898438	-692.7715454101565	28.12198638916017	156.2891845703126	-727.8171997070315	16.98925590515137	100.4355239868165	-491.0063171386721	119.5003890991212	204.1090698242189	-355.2843627929689	314.7048950195314	284.8087463378907	-576.2103271484377	918.5515136718755	118.3437500000001	-573.4992675781252	919.972534179688	203.6497497558595	-533.057556152344	1052.123657226563	138.1914062500001	-340.5887756347657	267.5229797363282	272.5130920410157	-298.6479797363282	335.1331176757814	276.8670043945314	-591.8408813476565	897.6726684570317	134.9663543701172	-591.5455322265627	899.8745727539067	185.7987976074219	-517.1790161132815	588.8518066406252	9.671879768371586	-676.4754638671877	304.0299072265626	51.28118515014651	
82	0.405	-451.7849731445315	1342.168212890625	111.8693389892579	-521.8950805664065	1266.131958007813	202.2506713867189	-337.6663208007814	1241.050537109375	147.9346923828126	-303.476043701172	1047.052734375	159.5279083251954	-365.5052185058595	856.1928710937505	257.7424926757814	-372.9522094726564	845.0868530273442	30.83013725280763	-542.368347167969	955.4038696289067	156.7805633544922	-319.1268615722657	601.4588012695315	299.5045776367189	-262.1224975585939	549.395202636719	278.9331359863282	-269.4031677246095	608.998229980469	294.4085693359376	-330.0796508789064	58.74341201782229	296.5204162597657	-290.7833251953126	53.69545364379886	251.7661285400392	-546.7437744140627	547.7207031250002	25.25239753723146	-467.3181152343752	561.6888427734377	20.59112548828126	-717.1689453125002	249.1056365966798	69.72817230224612	-668.0704345703127	252.6444702148439	71.52598571777347	-836.4384155273442	127.0208969116212	130.6284790039063	-692.3167114257815	27.74920463562013	156.2206115722657	-727.0281982421877	17.83930778503419	100.7732696533204	-454.5262451171877	111.7521057128907	205.2444610595704	-328.820526123047	313.5606384277345	284.5152282714845	-558.6319580078127	921.560913085938	116.6962966918946	-556.0466308593752	923.4902954101567	202.0522003173829	-515.9014892578127	1055.072998046875	135.5804138183594	-311.7574768066407	267.2581787109376	272.3383789062501	-273.5336303710939	336.9189758300782	276.117401123047	-574.5028076171877	900.5840454101567	133.8556060791016	-574.0286254882815	903.616577148438	184.6731872558594	-505.5626220703127	593.008483886719	10.13029479980469	-671.614196777344	310.8897705078126	51.66817474365237	
